<?xml version="1.0" standalone="no"?><!DOCTYPE svg PUBLIC "-//W3C//DTD SVG 1.1//EN" "http://www.w3.org/Graphics/SVG/1.1/DTD/svg11.dtd"><svg xmlns:xlink="http://www.w3.org/1999/xlink" version="1.1" style="font-family:'lucida grande', 'lucida sans unicode', arial, helvetica, sans-serif;font-size:12px;" xmlns="http://www.w3.org/2000/svg" width="600" height="400"><desc>Created with Highstock 4.2.3</desc><defs><clipPath id="highcharts-10"><rect x="0" y="0" width="552" height="196"></rect></clipPath><linearGradient x1="0" y1="0" x2="0" y2="1" id="highcharts-11"><stop offset="0" stop-color="#7cb5ec" stop-opacity="1"></stop><stop offset="1" stop-color="rgb(124,181,236)" stop-opacity="0"></stop></linearGradient><clipPath id="highcharts-12"><rect x="0" y="0" width="552" height="196"></rect></clipPath><clipPath id="highcharts-13"><rect x="0" y="0" width="524" height="40"></rect></clipPath></defs><rect x="0" y="0" width="600" height="400" fill="#FFFFFF" class=" highcharts-background"></rect><g class="highcharts-scrollbar" transform="translate(10,372)"><rect x="0" y="-0.5" fill="#eeeeee" stroke="#eeeeee" stroke-width="1" rx="0" ry="0" height="14" width="552"></rect><rect y="-0.5" height="14" fill="#bfc8d1" stroke="#bfc8d1" stroke-width="1" rx="0" ry="0" x="14.5" width="523"></rect><path fill="none" stroke="#666" stroke-width="1" visibility="visible" d="M 272.5 3.5 L 272.5 9.333333333333334 M 275.5 3.5 L 275.5 9.333333333333334 M 278.5 3.5 L 278.5 9.333333333333334"></path><g><rect x="-0.5" y="-0.5" width="14" height="14" stroke="#bbb" stroke-width="1" fill="#ebe7e8"></rect><path fill="#666" d="M 8 4 L 8 10 5 7"></path></g><g transform="translate(538,0)"><rect x="-0.5" y="-0.5" width="14" height="14" stroke="#bbb" stroke-width="1" fill="#ebe7e8"></rect><path fill="#666" d="M 6 4 L 6 10 9 7"></path></g></g><g class="highcharts-range-selector-buttons" transform="translate(0,50)"><text x="10" y="15" style="color:#666;fill:#666;">Zoom</text><g class="highcharts-button"  states="[object Object]" style="cursor:pointer;text-align:center;" transform="translate(48,0)"><rect x="0" y="0" width="32" height="22" fill="#e7f0f9" rx="0" ry="0"></rect><text x="7.5859375"  style="font-weight:bold;color:black;fill:black;" y="14">1w</text></g><g class="highcharts-button"  states="[object Object]" style="cursor:pointer;text-align:center;" transform="translate(85,0)"><rect x="0" y="0" width="32" height="22" fill="#f7f7f7" rx="0" ry="0"></rect><text x="6.609375"  style="font-weight:normal;color:#ccc;fill:#ccc;" y="14">1m</text></g><g class="highcharts-button"  states="[object Object]" style="cursor:pointer;text-align:center;" transform="translate(122,0)"><rect x="0" y="0" width="32" height="22" fill="#f7f7f7" rx="0" ry="0"></rect><text x="6.609375"  style="font-weight:normal;color:#ccc;fill:#ccc;" y="14">3m</text></g><g class="highcharts-button"  states="[object Object]" style="cursor:pointer;text-align:center;" transform="translate(159,0)"><rect x="0" y="0" width="32" height="22" fill="#f7f7f7" rx="0" ry="0"></rect><text x="6.609375"  style="font-weight:normal;color:#ccc;fill:#ccc;" y="14">6m</text></g><g class="highcharts-button"  states="[object Object]" style="cursor:pointer;text-align:center;" transform="translate(196,0)"><rect x="0" y="0" width="32" height="22" fill="#f7f7f7" rx="0" ry="0"></rect><text x="9.078125"  style="font-weight:normal;color:#ccc;fill:#ccc;" y="14">1y</text></g><g class="highcharts-button"  states="[object Object]" style="cursor:pointer;text-align:center;" transform="translate(233,0)"><rect x="0" y="0" width="32" height="22" fill="#f7f7f7" rx="0" ry="0"></rect><text x="3.9765625"  style="font-weight:normal;color:#ccc;fill:#ccc;" y="14">YTD</text></g><g class="highcharts-button"  states="[object Object]" style="cursor:pointer;text-align:center;" transform="translate(270,0)"><rect x="0" y="0" width="32" height="22" fill="#f7f7f7" rx="0" ry="0"></rect><text x="8.3984375"  style="font-weight:normal;color:#ccc;fill:#ccc;" y="14">All</text></g></g><g class="highcharts-input-group" transform="translate(329,50)" visibility="visible"><g style="fill:#666;" transform="translate(0,0)"><text x="2"  style="font-size:12px;font-family:'lucida grande', 'lucida sans unicode', arial, helvetica, sans-serif;color:#666;fill:#666;" y="14">From</text></g><g style="text-align:center;" transform="translate(39,0)"><rect x="0.5" y="0.5" width="94" height="21" fill="none" stroke="silver" stroke-width="1"></rect><text x="12.8984375"  style="font-size:12px;font-family:'lucida grande', 'lucida sans unicode', arial, helvetica, sans-serif;color:#444;fill:#444;" y="14"><tspan>Jan 1, 1970</tspan></text></g><g style="fill:#666;" transform="translate(143,0)"><text x="2"  style="font-size:12px;font-family:'lucida grande', 'lucida sans unicode', arial, helvetica, sans-serif;color:#666;fill:#666;" y="14">To</text></g><g style="text-align:center;" transform="translate(167,0)"><rect x="0.5" y="0.5" width="94" height="21" fill="none" stroke="silver" stroke-width="1"></rect><text x="12.8984375"  style="font-size:12px;font-family:'lucida grande', 'lucida sans unicode', arial, helvetica, sans-serif;color:#444;fill:#444;" y="14"><tspan>Jan 1, 1970</tspan></text></g></g><g class="highcharts-grid" ></g><g class="highcharts-grid" ><path fill="none" d="M 23.5 331 L 23.5 371" stroke="#EEE" stroke-width="1"  opacity="1"></path><path fill="none" d="M 211.5 331 L 211.5 371" stroke="#EEE" stroke-width="1"  opacity="1"></path><path fill="none" d="M 399.5 331 L 399.5 371" stroke="#EEE" stroke-width="1"  opacity="1"></path></g><g class="highcharts-grid" ></g><g class="highcharts-grid" ></g><g class="highcharts-axis" ><path fill="none" d="M 9.5 281 L 9.5 291" stroke="#C0D0E0" stroke-width="1" opacity="1"></path><path fill="none" d="M 75.5 281 L 75.5 291" stroke="#C0D0E0" stroke-width="1" opacity="1"></path><path fill="none" d="M 141.5 281 L 141.5 291" stroke="#C0D0E0" stroke-width="1" opacity="1"></path><path fill="none" d="M 207.5 281 L 207.5 291" stroke="#C0D0E0" stroke-width="1" opacity="1"></path><path fill="none" d="M 273.5 281 L 273.5 291" stroke="#C0D0E0" stroke-width="1" opacity="1"></path><path fill="none" d="M 339.5 281 L 339.5 291" stroke="#C0D0E0" stroke-width="1" opacity="1"></path><path fill="none" d="M 405.5 281 L 405.5 291" stroke="#C0D0E0" stroke-width="1" opacity="1"></path><path fill="none" d="M 470.5 281 L 470.5 291" stroke="#C0D0E0" stroke-width="1" opacity="1"></path><path fill="none" d="M 536.5 281 L 536.5 291" stroke="#C0D0E0" stroke-width="1" opacity="1"></path><path fill="none" d="M 10 281.5 L 562 281.5" stroke="#C0D0E0" stroke-width="1" ></path></g><g class="highcharts-axis" ></g><g class="highcharts-axis" ><text x="572"  text-anchor="middle" transform="translate(0,0) rotate(90 572 183)" class=" highcharts-yaxis-title" style="color:#707070;fill:#707070;" y="183"><tspan>Exchange rate</tspan></text></g><g class="highcharts-axis" ></g><g class="highcharts-series-group" ><g class="highcharts-series highcharts-series-0"  transform="translate(10,85) scale(1 1)" clip-path="url(#highcharts-12)"><path fill="url(#highcharts-11)" d="M 0 0" ></path></g><g class="highcharts-markers highcharts-series-0"  transform="translate(10,85) scale(1 1)" clip-path="none"></g><g class="highcharts-series highcharts-series-1"  transform="translate(24,331) scale(1 1)" clip-path="url(#highcharts-13)"><path fill="url(#highcharts-11)" d="M 0 0" ></path><path fill="none" d="M 0 0" stroke="#4572A7" stroke-width="1"  stroke-linejoin="round" stroke-linecap="round"></path></g><g class="highcharts-markers highcharts-series-1"  transform="translate(24,331) scale(1 1)" clip-path="none"></g></g><g class="highcharts-navigator" ><rect fill="rgb(128,179,236)" fill-opacity="0.3" style="cursor:ew-resize;" x="24" y="331" width="524" height="40"></rect><path fill="none" stroke="#b2b1b6" stroke-width="1" d="M 10 331.5 L 23.5 331.5 23.5 385.5 L 547.5 385.5 L 547.5 331.5 562 331.5 M 24.5 331.5 L 547.5 331.5"></path></g><text x="300" text-anchor="middle" class="highcharts-title"  style="color:#333333;font-size:16px;fill:#333333;width:536px;" y="22"><tspan>AAPL Stock Price</tspan></text><g class="highcharts-axis-labels highcharts-xaxis-labels" ><text x="25.1171875" style="color:#606060;cursor:default;font-size:11px;fill:#606060;width:59px;text-overflow:clip;" text-anchor="middle" transform="translate(0,0)" y="300" opacity="1"><tspan>1. Jan</tspan></text><text x="75.92776609975158" style="color:#606060;cursor:default;font-size:11px;fill:#606060;width:59px;text-overflow:clip;" text-anchor="middle" transform="translate(0,0)" y="300" opacity="1">00:00:05</text><text x="141.85553219950316" style="color:#606060;cursor:default;font-size:11px;fill:#606060;width:59px;text-overflow:clip;" text-anchor="middle" transform="translate(0,0)" y="300" opacity="1">00:00:10</text><text x="207.78329829925474" style="color:#606060;cursor:default;font-size:11px;fill:#606060;width:59px;text-overflow:clip;" text-anchor="middle" transform="translate(0,0)" y="300" opacity="1">00:00:15</text><text x="273.7110643990063" style="color:#606060;cursor:default;font-size:11px;fill:#606060;width:59px;text-overflow:clip;" text-anchor="middle" transform="translate(0,0)" y="300" opacity="1">00:00:20</text><text x="339.6388304987579" style="color:#606060;cursor:default;font-size:11px;fill:#606060;width:59px;text-overflow:clip;" text-anchor="middle" transform="translate(0,0)" y="300" opacity="1">00:00:25</text><text x="405.5665965985095" style="color:#606060;cursor:default;font-size:11px;fill:#606060;width:59px;text-overflow:clip;" text-anchor="middle" transform="translate(0,0)" y="300" opacity="1">00:00:30</text><text x="471.49436269826106" style="color:#606060;cursor:default;font-size:11px;fill:#606060;width:59px;text-overflow:clip;" text-anchor="middle" transform="translate(0,0)" y="300" opacity="1">00:00:35</text><text x="537.4221287980126" style="color:#606060;cursor:default;font-size:11px;fill:#606060;width:59px;text-overflow:clip;" text-anchor="middle" transform="translate(0,0)" y="300" opacity="1">00:00:40</text></g><g class="highcharts-axis-labels highcharts-xaxis-labels" ><text x="27" style="color:#888;cursor:default;font-size:11px;fill:#888;width:266px;text-overflow:clip;" text-anchor="start" transform="translate(0,0)" y="367" opacity="1"><tspan>1. Jan</tspan></text><text x="214.75081215364037" style="color:#888;cursor:default;font-size:11px;fill:#888;width:266px;text-overflow:clip;" text-anchor="start" transform="translate(0,0)" y="367" opacity="1">00:00:15</text><text x="402.50162430728074" style="color:#888;cursor:default;font-size:11px;fill:#888;width:266px;text-overflow:clip;" text-anchor="start" transform="translate(0,0)" y="367" opacity="1">00:00:30</text></g><g class="highcharts-axis-labels highcharts-yaxis-labels" ></g><g class="highcharts-axis-labels highcharts-yaxis-labels" ></g><g class="highcharts-tooltip"  style="cursor:default;padding:0;pointer-events:none;white-space:nowrap;" transform="translate(0,-9999)"><path fill="none" d="M 3.5 0.5 L 13.5 0.5 C 16.5 0.5 16.5 0.5 16.5 3.5 L 16.5 13.5 C 16.5 16.5 16.5 16.5 13.5 16.5 L 3.5 16.5 C 0.5 16.5 0.5 16.5 0.5 13.5 L 0.5 3.5 C 0.5 0.5 0.5 0.5 3.5 0.5"  stroke="black" stroke-opacity="0.049999999999999996" stroke-width="5" transform="translate(1, 1)"></path><path fill="none" d="M 3.5 0.5 L 13.5 0.5 C 16.5 0.5 16.5 0.5 16.5 3.5 L 16.5 13.5 C 16.5 16.5 16.5 16.5 13.5 16.5 L 3.5 16.5 C 0.5 16.5 0.5 16.5 0.5 13.5 L 0.5 3.5 C 0.5 0.5 0.5 0.5 3.5 0.5"  stroke="black" stroke-opacity="0.09999999999999999" stroke-width="3" transform="translate(1, 1)"></path><path fill="none" d="M 3.5 0.5 L 13.5 0.5 C 16.5 0.5 16.5 0.5 16.5 3.5 L 16.5 13.5 C 16.5 16.5 16.5 16.5 13.5 16.5 L 3.5 16.5 C 0.5 16.5 0.5 16.5 0.5 13.5 L 0.5 3.5 C 0.5 0.5 0.5 0.5 3.5 0.5"  stroke="black" stroke-opacity="0.15" stroke-width="1" transform="translate(1, 1)"></path><path fill="rgb(249, 249, 249)" fill-opacity=" .85" d="M 3.5 0.5 L 13.5 0.5 C 16.5 0.5 16.5 0.5 16.5 3.5 L 16.5 13.5 C 16.5 16.5 16.5 16.5 13.5 16.5 L 3.5 16.5 C 0.5 16.5 0.5 16.5 0.5 13.5 L 0.5 3.5 C 0.5 0.5 0.5 0.5 3.5 0.5"></path><text x="8"  style="font-size:12px;color:#333333;fill:#333333;" y="20"></text></g><text x="590" text-anchor="end"  style="cursor:pointer;color:#909090;font-size:9px;fill:#909090;" y="395">Highcharts.com</text><g class="highcharts-navigator-handle-right" style="cursor:ew-resize;"  transform="translate(548,343)"><rect x="-4.5" y="0.5" width="8" height="15" fill="#ebe7e8" stroke="#b2b1b6" stroke-width="1"></rect><path fill="#ebe7e8" d="M -1.5 4 L -1.5 12 M 0.5 4 L 0.5 12" stroke="#b2b1b6" stroke-width="1"></path></g><g class="highcharts-navigator-handle-left" style="cursor:ew-resize;"  transform="translate(24,343)"><rect x="-4.5" y="0.5" width="8" height="15" fill="#ebe7e8" stroke="#b2b1b6" stroke-width="1"></rect><path fill="#ebe7e8" d="M -1.5 4 L -1.5 12 M 0.5 4 L 0.5 12" stroke="#b2b1b6" stroke-width="1"></path></g></svg>